# xmcd
#
# Track frame offsets:
#	150
#	26013
#	50389
#	71881
#	95883
#	122137
#	148032
#	165574
#	194042
#	217971
#	240797
#
# Disc length: 3650 seconds
#
# Revision: 0
# Processed by: cddbd v1.5.2PL0 Copyright (c) Steve Scherf et al.
# Submitted via: audiograbber 1.83.01
#
DISCID=a20e400b
DTITLE=Joaquín Sabina y Cia - Nos sobran los motivos - Acústico
DYEAR=2000
DGENRE=Blues
TTITLE0=Nos sobran los motivos
TTITLE1=Tan jóven y tan viejo
TTITLE2=Una canción para la Magdalena
TTITLE3=Ruido
TTITLE4=De Purísima y Oro
TTITLE5=Calle Melancolía
TTITLE6=Rosa de Lima
TTITLE7=Que se llama Soledad
TTITLE8=19 días y  500 noches
TTITLE9=Contigo
TTITLE10=Noches de boda - Y nos dieron las diez
EXTD=
EXTT0=
EXTT1=
EXTT2=
EXTT3=
EXTT4=
EXTT5=
EXTT6=
EXTT7=
EXTT8=
EXTT9=
EXTT10=
PLAYORDER=
